<svg width="256" height="256" viewBox="0 0 256 256" fill="none" xmlns="http://www.w3.org/2000/svg">
  <defs>
    <linearGradient id="bg" x1="0" y1="0" x2="1" y2="1">
      <stop offset="0%" stop-color="#34d399"/>
      <stop offset="100%" stop-color="#22d3ee"/>
    </linearGradient>
    <filter id="s" x="-20%" y="-20%" width="140%" height="140%">
      <feDropShadow dx="0" dy="6" stdDeviation="8" flood-color="#0f172a" flood-opacity="0.18"/>
    </filter>
  </defs>
  <g filter="url(#s)">
    <path d="M44 24h112c9.9 0 19.4 3.9 26.4 10.9l39.7 39.7C229.1 81.6 233 91.1 233 101v112c0 19.3-15.7 35-35 35H44c-19.3 0-35-15.7-35-35V59c0-19.3 15.7-35 35-35z" fill="url(#bg)"/>
    <path d="M182 24v40c0 11 9 20 20 20h40" fill="#ffffff33"/>
  </g>
  <g transform="translate(28,40)">
    <circle cx="100" cy="70" r="42" fill="#fff"/>
    <circle cx="88" cy="66" r="6" fill="#0ea5e9"/>
    <circle cx="112" cy="66" r="6" fill="#0ea5e9"/>
    <path d="M80 84c6 8 34 8 40 0" stroke="#0ea5e9" stroke-width="4" stroke-linecap="round"/>
    <rect x="28" y="130" rx="16" width="144" height="36" fill="#fff"/>
    <rect x="40" y="142" rx="8" width="120" height="12" fill="#e2e8f0"/>
  </g>
</svg>
