<svg width="512" height="512" viewBox="0 0 512 512" fill="none" xmlns="http://www.w3.org/2000/svg">
  <defs>
    <linearGradient id="g" x1="0" y1="0" x2="1" y2="1">
      <stop offset="0%" stop-color="#A78BFA"/>
      <stop offset="100%" stop-color="#60A5FA"/>
    </linearGradient>
    <filter id="shadow" x="-20%" y="-20%" width="140%" height="140%">
      <feDropShadow dx="0" dy="6" stdDeviation="8" flood-color="#101828" flood-opacity="0.15"/>
    </filter>
  </defs>
  <g filter="url(#shadow)">
    <path d="M96 64h232c13.3 0 26.1 5.3 35.5 14.7l69.8 69.8C442.7 158 448 170.7 448 184v232c0 26.5-21.5 48-48 48H96c-26.5 0-48-21.5-48-48V112c0-26.5 21.5-48 48-48z" fill="url(#g)"/>
    <path d="M360 64v64c0 17.7 14.3 32 32 32h64" fill="#ffffff33"/>
  </g>
  <g transform="translate(100,140)">
    <rect x="0" y="0" width="312" height="18" rx="9" fill="#F8FAFC"/>
    <rect x="0" y="44" width="220" height="14" rx="7" fill="#EEF2FF"/>
    <rect x="0" y="88" width="260" height="14" rx="7" fill="#E0EAFF"/>
    <rect x="0" y="132" width="180" height="14" rx="7" fill="#EDE9FE"/>
    <circle cx="280" cy="110" r="22" fill="#F59E0B"/>
    <path d="M270 110l7 7 16-16" stroke="white" stroke-width="5" stroke-linecap="round" stroke-linejoin="round"/>
  </g>
</svg>
